<svg xmlns="http://www.w3.org/2000/svg" viewBox="0 0 612 792">
  <title>asteroid</title>
  <g id="f8691a33-44e5-4f48-8a7e-cab193987aaf" data-name="Layer 2">
    <g>
      <path d="M139.36,344.1a56.22,56.22,0,0,1,1.51-10.25c4.45-1.62,5.6-5.44,6.76-9.51,3.32-11.68,8.51-22.31,17.1-31.2,9.4-9.73,20.87-15.37,33.88-18,17.16-3.49,34.22-7.27,50.88-12.73,19.16-6.28,36.69-15.74,53.06-27.44,4.07-2.9,8.19-5.74,12.53-8.22,3.26-1.86,3.81-1.7,5.58,1.47,13.64,24.41,35.22,36.17,62.31,39.36a71.56,71.56,0,0,0,42.69-8.22c5.39-2.84,5.89-2.58,9.11,2.74a125.25,125.25,0,0,1,12.28,27.29,482.75,482.75,0,0,0,24.77,62.7c6.89,14.45,7.36,29.61,4.5,45.08-3,16.29-8.76,31.48-18.29,45.14A68.43,68.43,0,0,1,441.53,459c-18,12.85-29.79,30-35.09,51.49-2.21,9-4.11,18.06-8.84,26.18-2.21,3.78-4.4,7.6-8,10.23-7.48,5.39-15.46,5.88-23.78,2.23a96.74,96.74,0,0,1-11.19-6.08c-11.07-6.7-22.55-8.92-35.08-4-6.61,2.57-13.32,5.12-20.37,6.34-16.24,2.83-31.49-.39-46.16-7.52-24.49-11.9-43.16-30-56.76-53.36A192.65,192.65,0,0,0,168.36,448a96.88,96.88,0,0,1-26-53.83c-.29-2-.95-4-.75-5.94.49-4.77-.8-8.27-5.89-9.53a2.63,2.63,0,0,0,1.58-2.63c-.12-3.35-.06-6.69-.08-10,4.38-2.2,5.53-5.95,5-10.49a2.75,2.75,0,0,1,0-1.11C143.61,350.32,142.17,347,139.36,344.1Z" style="fill: #7c6598"/>
      <path d="M135.71,378.69c5.06,0,6.66,1.25,6.77,5.71.54,20.59,8.26,38.57,20,55.11a55.33,55.33,0,0,0,8.41,10C181.93,459.24,189.7,471.42,197,484c13.5,23.15,31.91,41.09,56.15,52.85,12.57,6.11,25.65,9.62,39.78,8.46,7.81-.64,15.05-3.3,22.38-5.77,6.34-2.14,12.56-4.86,19.55-4.2a47.47,47.47,0,0,1,20.66,7.16c2.66,1.63,5.37,3.21,8.15,4.61,13.68,6.92,25.45,3.18,32.84-10.26,4.27-7.75,6.51-16.16,8.47-24.69,5.2-22.63,17.18-40.71,36.21-54.08,10.94-7.69,18.4-18.23,24.15-30.05a119.67,119.67,0,0,0,11.5-42.36c1.23-14.12-2.6-27.15-8.8-39.67-8.54-17.27-15.18-35.29-21-53.63A142.57,142.57,0,0,0,433,261c-1.46-2.4-2.64-3.24-5.47-1.57-31.72,18.68-75.25,8.83-98.28-16.85a54.84,54.84,0,0,1-9.53-14.28c-1-2.26-1.85-2.3-3.77-1-10.19,6.76-20.29,13.69-30.75,20C267,258.3,247,265.08,226.43,270c-10.66,2.53-21.49,4.39-32.08,7.19-24.72,6.52-38.92,23.5-45.85,47.37-.42,1.44-.92,2.86-1.22,4.32-.74,3.51-2.92,5.07-6.41,5-3.59-1.49-4.66-4-3.67-7.81,4.69-18.06,12.72-34.11,27.67-46,10.83-8.59,23.48-12.83,36.89-15.41,24.42-4.7,48.44-10.73,70.73-22.26,12.68-6.56,24-15.21,36-22.81,16.52-10.46,34.14-16.29,54-13.4,13.5,2,26,6.88,38,13.09q41.56,21.44,55.36,66.13a474.35,474.35,0,0,0,24.74,62.9c8.16,17.19,8.38,35.23,4.55,53.49-3.94,18.8-11.07,36.21-23.3,51.27a68.16,68.16,0,0,1-13.92,13c-17.83,12.45-28.79,29.37-33.23,50.64-2.23,10.68-5.54,21-12,30-9.52,13.33-24.53,17.71-39.72,11.57a82.08,82.08,0,0,1-12.51-6.69c-9.19-5.72-18.63-7.72-29.13-3.22a92.55,92.55,0,0,1-27,7.38c-16.2,1.64-31.16-2.52-45.57-9.45-25.63-12.32-45.39-31-59.83-55.39-2.86-4.83-5.89-9.56-8.8-14.36A81.91,81.91,0,0,0,167.39,461c-19.8-19.6-32.18-43-35.17-70.94-.21-2-.2-4-.21-6C132,381.44,133,379.49,135.71,378.69Z" style="fill: #2d1d40"/>
      <path d="M139.36,344.1c3.74,1.59,5.15,4.17,4.18,8.3-.56,2.36-.22,4.93-.41,7.39-.27,3.64-1.91,6.09-5.92,6.23-3.54-.75-4.93-3-4.64-6.52.26-3.1.54-6.21.67-9.31C133.41,346.21,135.56,344.36,139.36,344.1Z" style="fill: #2d1d40"/>
      <path d="M372.69,300.74a28.34,28.34,0,0,1,10.56,6.1c0,4.29,2.29,7.56,4.32,11.13,6.37,11.17,1.68,23.46-10.57,27.47-14.88,4.87-28.17,1.87-39.08-9.56-10.24-10.72-7-25.45,6.74-31.09,5.74-2.36,11.76-3.79,17.91-2.07C366.46,303.81,369.53,302.46,372.69,300.74Z" style="fill: #67537e"/>
      <path d="M372.69,300.74c-2,3-4.34,4.19-8.2,3.23a30.18,30.18,0,0,0-22.69,3.28,16.91,16.91,0,0,0-7,22.59c7.63,15.35,32.13,21.84,46.51,12.48,10.17-6.62,10.19-18.81,3.62-26.63-2.4-2.87-3.08-5.53-1.68-8.85,4.58-2.52,6.75-2,10.15,2.38,12.13,15.6,7.34,35.71-10.51,44.18-18.47,8.76-43.82,1.89-55.06-14.92-10-15-5.72-32.53,10.25-41,9.14-4.85,18.86-5.91,29-3.77C371.11,294.56,372.88,296.76,372.69,300.74Z" style="fill: #2d1d40"/>
      <path d="M397.51,455.31c-13.48,0-22.52-10.61-21-24.68,1.58-14.43,15.79-27.89,30.23-28.63s24.73,10.5,22.89,24.82C427.64,442.57,413.3,455.27,397.51,455.31Z" style="fill: #2d1d40"/>
      <path d="M239.86,492a24.12,24.12,0,0,1-22.93-15.42c-3.76-9.5-1.88-19.2,4.94-25.47,7-6.43,17-6.21,25.57.57,10,7.9,12.44,22.94,5.3,32.86A17.23,17.23,0,0,1,239.86,492Z" style="fill: #2d1d40"/>
      <path d="M307.59,386.87c12,0,19.62,7.44,18.64,18.32-.58,6.38-4.14,11.17-9,15a29.88,29.88,0,0,1-22.76,6.52,16.52,16.52,0,0,1-13.81-10.73c-2.64-6.59-.72-12.86,3.74-18.12C290.43,390.74,298.11,386.79,307.59,386.87Z" style="fill: #2d1d40"/>
      <path d="M237.74,297.46c-3.36-.06-5.89-2.06-5.93-5-.06-3.42,1.75-5.26,5.24-5.47,9.33-.58,18.55-1.81,27.47-4.84,5.12-1.74,10-3.84,14-7.61,2.32-2.17,4.94-2.3,7.25.23s1.89,4.87-.3,7.27c-3.36,3.7-7.64,5.95-12.09,8C264.92,293.87,246.84,297.62,237.74,297.46Z" style="fill: #2d1d40"/>
      <path d="M267.93,368.44c-6.18.76-12.25,4.81-17.84,9.68a27.92,27.92,0,0,0-8.15,11.47,5.05,5.05,0,0,1-7,3.08c-3-1.36-3.84-3.74-2.7-6.81,3.8-10.26,11.42-17.07,20.48-22.48a34.38,34.38,0,0,1,14.68-5.23,10,10,0,0,1,2.94,0c3.56.71,5.49,2.74,5.2,5.65S273,368.48,267.93,368.44Z" style="fill: #2d1d40"/>
      <path d="M452.31,380.86c0,2.37.06,4.74,0,7.11-.1,2.89-1.61,4.66-4.52,5s-4.74-1.25-5.59-3.88a11.09,11.09,0,0,1-.33-3.69,103.86,103.86,0,0,0-5.22-34.89c-1.2-3.76,0-6.79,2.91-7.72,3.31-1.05,5.82.51,7.13,4.7C450.09,358.37,452.43,369.41,452.31,380.86Z" style="fill: #2d1d40"/>
      <path d="M373.68,521.25c-2.89-.08-5.46-2.46-5.11-5.36,1.69-14,4.55-27.56,13.31-39.13,1.47-1.93,3.13-3.71,5.86-3.34a5.22,5.22,0,0,1,3.37,8.61c-7.65,9.43-10.11,20.66-11.69,32.22C378.76,519,377,521.34,373.68,521.25Z" style="fill: #2d1d40"/>
      <path d="M174.07,374.13a77.55,77.55,0,0,0,2.62,17.65,23,23,0,0,0,5.12,9.4,4.69,4.69,0,0,1-.21,7c-2.18,2.11-4.72,2-7.06.07-4.09-3.4-6.26-8-7.82-12.93a75.39,75.39,0,0,1-3.09-20.95,14.94,14.94,0,0,1,.75-5.14,4.58,4.58,0,0,1,5.31-3.16c2.4.3,4.2,1.59,4.37,4.3C174.14,371.63,174.07,372.88,174.07,374.13Z" style="fill: #2d1d40"/>
      <path d="M351.75,215.93c16.91.24,32.14,6.19,46.65,14.23a120.58,120.58,0,0,1,23.42,17.24c1.83,1.7,1.77,2.47-.49,3.64a65.1,65.1,0,0,1-37.13,7.12A74.05,74.05,0,0,1,345.06,243a56.33,56.33,0,0,1-15.58-18.43c-1.42-2.68-.92-4.29,2.11-5.23C338.16,217.29,344.78,215.7,351.75,215.93Z" style="fill: #67537e"/>
      <path d="M397.92,444.79c-7.81,0-11.88-5-10.91-13.38,1.08-9.24,11.07-18.49,20.43-18.91,8-.36,12.86,5.28,11.75,13.53C417.87,435.8,407.71,444.77,397.92,444.79Z" style="fill: #67537d"/>
      <path d="M238.08,481.55c-5.34-.38-8.9-3.46-11-8.15-2.06-4.52-2.37-9.22.86-13.41s9.1-4,13.72.45a14.5,14.5,0,0,1,4,15.35A7.81,7.81,0,0,1,238.08,481.55Z" style="fill: #67537d"/>
      <path d="M299,416.33c-3.39,0-6.77-.38-8.26-3.84s.5-6.46,2.87-9a18.9,18.9,0,0,1,16.14-6c5,.42,7.52,4.63,5.24,9.07C311.63,413,306,415.84,299,416.33Z" style="fill: #67537d"/>
    </g>
  </g>
</svg>
