<svg width="347" height="256" viewBox="0 0 347 256" fill="none" xmlns="http://www.w3.org/2000/svg">
<path d="M0 72.3057C21.5533 85.4191 43.1033 98.529 64.65 111.636C96.7833 131.236 128.887 150.866 160.96 170.526C169.36 175.696 177.22 175.646 185.63 170.526C238.297 138.319 291.013 106.189 343.78 74.1357L346.96 72.2057V74.5857C346.96 117.716 347.03 160.846 346.96 203.976C346.9 228.466 331.33 248.196 307.63 254.256C302.897 255.351 298.046 255.848 293.19 255.736C213.48 255.736 133.77 255.536 54.06 255.856C23.59 255.966 3.55 234.606 0.619995 211.956C0.619995 211.706 0.229999 211.486 0.0299988 211.246L0 72.3057Z" fill="black"/>
<path d="M173.62 0.0257186C213.707 0.0257186 253.8 0.0257186 293.9 0.0257186C314.47 0.0257186 330.05 8.9657 340.34 26.8857C340.4 26.9757 340.47 27.0757 340.52 27.1657C346.89 39.0057 346.85 39.2257 335.58 46.1657C282.5 78.6057 229.427 111.056 176.36 143.516C175.589 144.113 174.641 144.438 173.665 144.438C172.689 144.438 171.741 144.113 170.97 143.516C115.503 109.596 59.9867 75.749 4.41999 41.9757C2.14999 40.5957 1.73999 39.3957 2.41999 36.8957C8.82999 14.6657 28.67 0.0757076 52.97 0.0457076C93.21 -0.00762571 133.427 -0.0142814 173.62 0.0257186Z" fill="black"/>
</svg>
